<svg xmlns="http://www.w3.org/2000/svg" viewBox="0 0 900 600" width="900" height="600" role="img" aria-label="Preparing to Preach">
  <rect width="900" height="600" fill="#f5f2ec"/>
  <line x1="72" y1="150" x2="640" y2="150" stroke="#14171a" stroke-width="1" opacity="0.10"/><line x1="72" y1="190" x2="640" y2="190" stroke="#14171a" stroke-width="1" opacity="0.10"/><line x1="72" y1="230" x2="640" y2="230" stroke="#14171a" stroke-width="1" opacity="0.10"/><line x1="72" y1="270" x2="640" y2="270" stroke="#14171a" stroke-width="1" opacity="0.10"/><line x1="72" y1="310" x2="640" y2="310" stroke="#14171a" stroke-width="1" opacity="0.10"/><line x1="72" y1="350" x2="640" y2="350" stroke="#14171a" stroke-width="1" opacity="0.10"/><line x1="72" y1="390" x2="640" y2="390" stroke="#14171a" stroke-width="1" opacity="0.10"/><line x1="72" y1="430" x2="640" y2="430" stroke="#14171a" stroke-width="1" opacity="0.10"/><line x1="72" y1="470" x2="640" y2="470" stroke="#14171a" stroke-width="1" opacity="0.10"/><line x1="72" y1="510" x2="640" y2="510" stroke="#14171a" stroke-width="1" opacity="0.10"/><line x1="72" y1="550" x2="640" y2="550" stroke="#14171a" stroke-width="1" opacity="0.10"/>
  <text x="72" y="106" font-family="'Helvetica Neue', Helvetica, Arial, sans-serif" font-size="19" letter-spacing="4.5" fill="#073fbd">BEACON HILL · WORKBOOK</text>
  <text x="72" y="232" font-family="Georgia, 'Times New Roman', serif" font-size="54" fill="#14171a">Preparing</text><text x="72" y="296" font-family="Georgia, 'Times New Roman', serif" font-size="54" fill="#14171a">to Preach</text>
  <rect x="668" y="368" width="160" height="160" rx="10" fill="#073fbd"/>
  <text x="748" y="454" text-anchor="middle" font-family="'Helvetica Neue', Helvetica, Arial, sans-serif" font-size="52" font-weight="700" fill="#fff">12</text>
  <text x="748" y="486" text-anchor="middle" font-family="'Helvetica Neue', Helvetica, Arial, sans-serif" font-size="16" letter-spacing="2" fill="#fff" opacity="0.9">SHEETS</text>
  <text x="72" y="516" font-family="'Helvetica Neue', Helvetica, Arial, sans-serif" font-size="21" fill="#14171a" opacity="0.66">Sold as a pad of twelve</text></svg>