<svg xmlns="http://www.w3.org/2000/svg" viewBox="0 0 900 600" width="900" height="600" role="img" aria-label="Songs from the Accra Night">
<defs>
  <linearGradient id="ramp12" x1="0" y1="0" x2="0.7" y2="1">
    <stop offset="0" stop-color="#5a2340"/><stop offset="1" stop-color="#1a0a18"/>
  </linearGradient>
  <radialGradient id="glow12" cx="0.5" cy="0.5" r="0.5">
    <stop offset="0" stop-color="#fff" stop-opacity="0.55"/><stop offset="1" stop-color="#fff" stop-opacity="0"/>
  </radialGradient>
  <radialGradient id="vig12" cx="0.5" cy="0.42" r="0.78">
    <stop offset="0.55" stop-color="#000" stop-opacity="0"/><stop offset="1" stop-color="#000" stop-opacity="0.34"/>
  </radialGradient>
  <filter id="grain12" x="0" y="0" width="100%" height="100%">
    <feTurbulence type="fractalNoise" baseFrequency="0.85" numOctaves="3" seed="12"/>
    <feColorMatrix type="saturate" values="0"/>
  </filter>
  <filter id="soft12" x="-30%" y="-30%" width="160%" height="160%">
    <feGaussianBlur stdDeviation="26"/>
  </filter>
</defs>
    <rect width="900" height="600" fill="url(#ramp12)"/>
    <circle cx="620" cy="180" r="220" fill="url(#glow12)" opacity="0.42"/>
    <g opacity="0.22" fill="#000"><circle cx="30" cy="470" r="25"/><rect x="-1" y="491" width="62" height="140" rx="25"/><circle cx="86.25" cy="470" r="29"/><rect x="51.25" y="495" width="70" height="140" rx="29"/><circle cx="142.5" cy="470" r="33"/><rect x="103.5" y="499" width="78" height="140" rx="33"/><circle cx="198.75" cy="470" r="25"/><rect x="167.75" y="491" width="62" height="140" rx="25"/><circle cx="255" cy="470" r="29"/><rect x="220" y="495" width="70" height="140" rx="29"/><circle cx="311.25" cy="470" r="33"/><rect x="272.25" y="499" width="78" height="140" rx="33"/><circle cx="367.5" cy="470" r="25"/><rect x="336.5" y="491" width="62" height="140" rx="25"/><circle cx="423.75" cy="470" r="29"/><rect x="388.75" y="495" width="70" height="140" rx="29"/><circle cx="480" cy="470" r="33"/><rect x="441" y="499" width="78" height="140" rx="33"/><circle cx="536.25" cy="470" r="25"/><rect x="505.25" y="491" width="62" height="140" rx="25"/><circle cx="592.5" cy="470" r="29"/><rect x="557.5" y="495" width="70" height="140" rx="29"/><circle cx="648.75" cy="470" r="33"/><rect x="609.75" y="499" width="78" height="140" rx="33"/><circle cx="705" cy="470" r="25"/><rect x="674" y="491" width="62" height="140" rx="25"/><circle cx="761.25" cy="470" r="29"/><rect x="726.25" y="495" width="70" height="140" rx="29"/><circle cx="817.5" cy="470" r="33"/><rect x="778.5" y="499" width="78" height="140" rx="33"/><circle cx="873.75" cy="470" r="25"/><rect x="842.75" y="491" width="62" height="140" rx="25"/></g><g opacity="0.38" fill="#000"><circle cx="52" cy="522" r="25"/><rect x="21" y="543" width="62" height="140" rx="25"/><circle cx="116.28571428571429" cy="522" r="29"/><rect x="81.28571428571429" y="547" width="70" height="140" rx="29"/><circle cx="180.57142857142858" cy="522" r="33"/><rect x="141.57142857142858" y="551" width="78" height="140" rx="33"/><circle cx="244.8571428571429" cy="522" r="25"/><rect x="213.8571428571429" y="543" width="62" height="140" rx="25"/><circle cx="309.14285714285717" cy="522" r="29"/><rect x="274.14285714285717" y="547" width="70" height="140" rx="29"/><circle cx="373.42857142857144" cy="522" r="33"/><rect x="334.42857142857144" y="551" width="78" height="140" rx="33"/><circle cx="437.7142857142858" cy="522" r="25"/><rect x="406.7142857142858" y="543" width="62" height="140" rx="25"/><circle cx="502.00000000000006" cy="522" r="29"/><rect x="467.00000000000006" y="547" width="70" height="140" rx="29"/><circle cx="566.2857142857143" cy="522" r="33"/><rect x="527.2857142857143" y="551" width="78" height="140" rx="33"/><circle cx="630.5714285714287" cy="522" r="25"/><rect x="599.5714285714287" y="543" width="62" height="140" rx="25"/><circle cx="694.8571428571429" cy="522" r="29"/><rect x="659.8571428571429" y="547" width="70" height="140" rx="29"/><circle cx="759.1428571428572" cy="522" r="33"/><rect x="720.1428571428572" y="551" width="78" height="140" rx="33"/><circle cx="823.4285714285716" cy="522" r="25"/><rect x="792.4285714285716" y="543" width="62" height="140" rx="25"/><circle cx="887.7142857142858" cy="522" r="29"/><rect x="852.7142857142858" y="547" width="70" height="140" rx="29"/></g><g opacity="0.54" fill="#000"><circle cx="30" cy="574" r="25"/><rect x="-1" y="595" width="62" height="140" rx="25"/><circle cx="105" cy="574" r="29"/><rect x="70" y="599" width="70" height="140" rx="29"/><circle cx="180" cy="574" r="33"/><rect x="141" y="603" width="78" height="140" rx="33"/><circle cx="255" cy="574" r="25"/><rect x="224" y="595" width="62" height="140" rx="25"/><circle cx="330" cy="574" r="29"/><rect x="295" y="599" width="70" height="140" rx="29"/><circle cx="405" cy="574" r="33"/><rect x="366" y="603" width="78" height="140" rx="33"/><circle cx="480" cy="574" r="25"/><rect x="449" y="595" width="62" height="140" rx="25"/><circle cx="555" cy="574" r="29"/><rect x="520" y="599" width="70" height="140" rx="29"/><circle cx="630" cy="574" r="33"/><rect x="591" y="603" width="78" height="140" rx="33"/><circle cx="705" cy="574" r="25"/><rect x="674" y="595" width="62" height="140" rx="25"/><circle cx="780" cy="574" r="29"/><rect x="745" y="599" width="70" height="140" rx="29"/><circle cx="855" cy="574" r="33"/><rect x="816" y="603" width="78" height="140" rx="33"/></g>
    <rect width="900" height="600" fill="url(#vig12)"/><rect width="900" height="600" filter="url(#grain12)" opacity="0.13" style="mix-blend-mode:overlay"/>
    <text x="72" y="104" font-family="'Helvetica Neue', Helvetica, Arial, sans-serif" font-size="18" letter-spacing="4.6" fill="#ffeede" opacity="0.9">NDW WORSHIP · ALBUM</text>
    <text x="72" y="250" text-anchor="start" font-family="Georgia, 'Times New Roman', serif" font-size="56" fill="#ffeede">Songs from the</text><text x="72" y="316" text-anchor="start" font-family="Georgia, 'Times New Roman', serif" font-size="56" fill="#ffeede">Accra Night</text>
    <text x="72" y="418" font-family="'Helvetica Neue', Helvetica, Arial, sans-serif" font-size="21" fill="#ffeede" opacity="0.72">Recorded live · 74m · Twi</text></svg>